<?xml version="1.0" encoding="utf-8"?>
<!-- Generator: Adobe Illustrator 25.3.1, SVG Export Plug-In . SVG Version: 6.00 Build 0)  -->
<svg version="1.1" id="Calque_1" xmlns="http://www.w3.org/2000/svg" xmlns:xlink="http://www.w3.org/1999/xlink" x="0px" y="0px"
	 viewBox="0 0 332.8 351.5" style="enable-background:new 0 0 332.8 351.5;" xml:space="preserve">
<style type="text/css">
	.st0{fill:#136CB5;}
	.st1{fill:#FFFFFF;}
	.st2{display:none;}
	.st3{display:inline;}
	.st4{enable-background:new    ;}
</style>
<circle class="st0" cx="169.3" cy="188" r="163.5"/>
<g>
	<path class="st1" d="M72.6,246.6c-3.9,1.9-12.6,4-23.9,4c-32.2,0-48.7-20-48.7-46.5c0-31.7,22.6-49.4,50.8-49.4
		c10.9,0,19.2,2.2,22.9,4.1l-4.3,16.7c-4.3-1.8-10.2-3.4-17.7-3.4c-16.7,0-29.7,10.1-29.7,30.8c0,18.6,11,30.4,29.8,30.4
		c6.3,0,13.4-1.4,17.5-3L72.6,246.6z"/>
	<path class="st1" d="M87.1,227.6c5.7,2.9,14.4,5.8,23.3,5.8c9.7,0,14.8-4,14.8-10.1c0-5.8-4.4-9.1-15.6-13.1
		C94.1,204.8,84,196.3,84,182.7c0-15.9,13.2-28,35.2-28c10.5,0,18.2,2.2,23.7,4.7l-4.7,17c-3.7-1.8-10.4-4.4-19.5-4.4
		s-13.5,4.1-13.5,9c0,5.9,5.2,8.6,17.3,13.1c16.4,6.1,24.1,14.6,24.1,27.7c0,15.6-12,28.8-37.5,28.8c-10.6,0-21.1-2.8-26.4-5.7
		L87.1,227.6z"/>
	<path class="st1" d="M181.9,156.3v53.5c0,16,6.1,24.2,16.8,24.2c11,0,17.1-7.7,17.1-24.2v-53.5h21v52.2c0,28.7-14.5,42.4-38.8,42.4
		c-23.5,0-37.3-13-37.3-42.6v-51.9H181.9z"/>
	<path class="st1" d="M332.7,245c-6.5,2.2-18.8,5.2-31.1,5.2c-17,0-29.3-4.3-37.8-12.6c-8.6-8-13.2-20.1-13.1-33.8
		c0.1-30.9,22.6-48.6,53.1-48.6c12,0,21.3,2.3,25.8,4.6l-4.4,16.8c-5.1-2.2-11.5-4-21.7-4c-17.5,0-30.8,9.9-30.8,30.1
		c0,19.2,12,30.5,29.3,30.5c4.8,0,8.7-0.6,10.4-1.4v-19.5h-14.4V196h34.6V245z"/>
</g>
<g class="st2">
	<path class="st3" d="M189.3,166.9c0,0-0.7,0.9-1.9,2.6c-1.3,1.7-3.1,4.1-5.4,7.3c-2.4,3.1-5.2,6.9-8.6,11.1
		c-3.4,4.3-7.2,9-11.5,14.2c-4.3,5.1-9,10.7-14.1,16.4c-5.1,5.7-10.5,11.7-16.3,17.8c-5.8,6.1-11.8,12.3-18.2,18.4
		c-6.3,6.1-12.9,12.2-19.6,18.1c-6.8,5.9-13.7,11.6-20.7,16.9c-7,5.4-14.3,10.3-21.6,14.6c-7.3,4.2-14.8,7.9-22.8,9.5
		c-2,0.4-4,0.6-6.1,0.4c-2-0.1-4.2-0.6-6-1.7c-0.5-0.2-0.9-0.6-1.3-0.9l-0.2-0.1l-0.1-0.1c0,0-0.2-0.1-0.1-0.1l-0.2-0.2
		c-0.2-0.2-0.3-0.3-0.5-0.5c-0.8-0.8-1.3-1.7-1.8-2.5c-0.9-1.8-1.4-3.6-1.6-5.4c-0.5-3.6-0.2-6.9,0.4-9.9c0.5-3.1,1.3-5.9,2-8.5
		c1.6-5.3,3.4-9.7,4.9-13.3c1.5-3.6,2.9-6.4,3.8-8.2c0.9-1.9,1.4-2.9,1.4-2.9s-0.4,1-1.2,3c-0.8,1.9-1.8,4.8-3.1,8.5
		c-1.3,3.7-2.7,8.2-4,13.4c-0.6,2.6-1.2,5.4-1.5,8.4c-0.3,3-0.5,6.1,0.1,9.2c0.3,1.5,0.7,3,1.5,4.3c0.4,0.6,0.9,1.3,1.3,1.7
		c0.1,0.1,0.3,0.3,0.5,0.4l0.3,0.2c0.1,0.1,0,0,0,0l0.1,0l0.1,0.1c0.3,0.2,0.6,0.4,0.9,0.6c2.6,1.4,6.2,1.3,9.7,0.6
		c3.5-0.8,7.1-2.2,10.6-3.8c3.5-1.7,7.1-3.6,10.6-5.8c7-4.3,14-9.3,20.9-14.6c6.9-5.3,13.7-11,20.4-16.9
		c6.7-5.8,13.2-11.8,19.6-17.9c6.3-6,12.5-12,18.4-18c5.8-5.9,11.5-11.7,16.7-17.3c5.2-5.6,10.2-10.8,14.7-15.8
		c4.5-4.9,8.6-9.5,12.2-13.5c3.6-4.1,6.8-7.6,9.3-10.5c2.6-2.9,4.6-5.2,6-6.8C188.6,167.7,189.3,166.9,189.3,166.9z"/>
</g>
<g>
	<path class="st0" d="M211.6,29.2c9.1-9.1,42.4-40.1,54.4-25.2c10.2,14.7-14.2,55.3-22.8,68.9c-7.9,12.4-16.5,24.4-25.9,35.6
		c7-12.9,14.3-25.6,21.2-38.4c6.1-11.9,28.1-50.9,22.3-62.4C253.7-0.6,219.4,24.3,211.6,29.2L211.6,29.2z"/>
</g>
<g>
	<g class="st4">
		<g>
			<polygon class="st1" points="209.6,136.6 200.2,139.4 188.7,127.8 198,125 			"/>
		</g>
		<g>
			<polygon class="st1" points="197.2,122.6 187.9,125.4 197.1,113.1 206.5,110.4 			"/>
		</g>
		<g>
			<polygon class="st1" points="209.4,111.2 220.9,122.8 211.7,135.1 200.1,123.5 			"/>
		</g>
	</g>
</g>
<g>
	<path class="st1" d="M262.2,4.6c0.5,0.4,1.1,0.7,1.4,1.2c0.2,0.2,0.4,0.5,0.6,0.7l0.5,0.8c0.3,0.6,0.5,1.2,0.8,1.8
		c0.2,0.6,0.3,1.2,0.5,1.9c0.5,2.5,0.4,5.1,0.2,7.6c-0.5,5.1-1.8,9.9-3.2,14.7c-3.1,9.5-7.3,18.4-11.9,27.1c-4.7,8.7-9.9,17-15.5,25
		c-5.6,8-11.6,15.8-18.3,23c4.3-8.9,9-17.4,13.6-25.9c4.7-8.5,9.4-17,14-25.4c4.6-8.5,9.1-17,12.9-25.7c1.9-4.4,3.8-8.8,5-13.3
		c0.6-2.3,1.1-4.6,1.2-6.9c0-0.6,0-1.2,0-1.7c-0.1-0.6-0.1-1.2-0.3-1.7C263.6,6.6,263,5.6,262.2,4.6z"/>
</g>
<polygon class="st0" points="261.2,5.5 262.6,11 262.6,16.4 259.7,26.1 255.1,37 250.6,46.2 256.6,49.7 263.4,34.1 267.8,15.6 
	265.7,5.5 262,2.6 "/>
</svg>
